<svg xmlns="http://www.w3.org/2000/svg" version="1.1" xmlns:xlink="http://www.w3.org/1999/xlink" xmlns:svgjs="http://svgjs.dev/svgjs" width="100%" height="100%" viewBox="0 0 1000 600"><rect width="1000" height="600" x="0" y="0" fill="#212529"/><g><rect width="333.3333333333333" height="333.3333333333333" rx="13.333333333333334" ry="13.333333333333334" y="275.27142376171054" fill="#dee2e6" transform="matrix(0.4939750957438547,0,0,0.4939750957438547,0,81.69359076999609)" x="253.0491943359375"/><path d="M328.686991422672 366.93809076948526L348.10183471296205 366.93809076948526L348.10183471296205 515.7174063428308L328.686991422672 515.7174063428308L328.686991422672 366.93809076948526ZM280.96367902348595 366.93809076948526L395.9123395221344 366.93809076948526L395.9123395221344 383.09775075361887L280.96367902348595 383.09775075361887L280.96367902348595 366.93809076948526ZM433.7247813195406 499.67400290534556L512.488591673861 499.67400290534556L512.488591673861 515.7174063428308L433.7247813195406 515.7174063428308L433.7247813195406 499.67400290534556ZM417.97201924867653 366.93809076948526L437.70656804224984 366.93809076948526L437.70656804224984 515.7174063428308L417.97201924867653 515.7174063428308L417.97201924867653 366.93809076948526ZM433.7247813195406 430.9082555627912L502.0836307488254 430.9082555627912L502.0836307488254 446.95165900027644L433.7247813195406 446.95165900027644L433.7247813195406 430.9082555627912ZM433.7247813195406 366.93809076948526L511.4713468906872 366.93809076948526L511.4713468906872 383.09775075361887L433.7247813195406 383.09775075361887L433.7247813195406 366.93809076948526ZM536.6990175133993 366.93809076948526L556.520758716959 366.93809076948526L555.212872567164 473.7197288660806L538.1522243465049 473.7197288660806L536.6990175133993 366.93809076948526ZM536.0886706434951 506.21343365432045L536.0886706434951 506.21343365432045Q536.0886706434951 501.621300061707 538.9078918997199 498.4533091655369Q541.7271131559446 495.28531826936677 547.2492991217456 495.28531826936677L547.2492991217456 495.28531826936677Q552.6552285408983 495.28531826936677 555.5616422071093 498.4533091655369Q558.4680558733204 501.621300061707 558.4680558733204 506.21343365432045L558.4680558733204 506.21343365432045Q558.4680558733204 510.60211829029925 555.5616422071093 513.7701091864693Q552.6552285408983 516.9381000826395 547.2492991217456 516.9381000826395L547.2492991217456 516.9381000826395Q541.7271131559446 516.9381000826395 538.9078918997199 513.7701091864693Q536.0886706434951 510.60211829029925 536.0886706434951 506.21343365432045Z " fill="#212529" transform="matrix(0.4939750957438547,0,0,0.4939750957438547,0,81.69359076999609)"/><path d="M717.1816546121884 366.93809079102294L736.4917338526188 366.93809079102294L736.4917338526188 514.9145812577349L717.1816546121884 514.9145812577349L717.1816546121884 366.93809079102294ZM669.7158610301722 366.93809079102294L784.0442493473915 366.93809079102294L784.0442493473915 383.01055195521354L669.7158610301722 383.01055195521354L669.7158610301722 366.93809079102294ZM871.3443081888586 514.9145812577349L870.4192744527902 489.5050608201025L870.4192744527902 404.9511958825889L889.3246514336906 404.9511958825889L889.3246514336906 514.9145812577349L871.3443081888586 514.9145812577349ZM873.9748728758036 466.35031011413724L873.9748728758036 466.35031011413724L881.8087523281338 466.11905168012015Q881.8087523281338 477.10382729593385 879.5250752922148 486.4119792651234Q877.2413982562955 495.72013123431293 872.1537127079187 502.51334773356615Q867.0660271595418 509.33547153707156 858.8274454476814 513.1223283941022Q850.6177710400732 516.9380925553847 838.8235909051996 516.9380925553847L838.8235909051996 516.9380925553847Q830.7873603231042 516.9380925553847 824.1386803451117 514.5966009109613Q817.4900003671191 512.2840165707901 812.6913878612638 507.3986821521781Q807.9216826596603 502.51334773356615 805.3200252769677 494.67946828123587Q802.747275198527 486.87449613315766 802.747275198527 475.88972051734396L802.747275198527 475.88972051734396L802.747275198527 404.9511958825889L821.5370229624191 404.9511958825889L821.5370229624191 476.0920716471089Q821.5370229624191 483.5212488399093 823.2136466090433 488.3487686500169Q824.8902702556675 493.1762884601245 827.7810006808816 495.9513896683301Q830.7006384103479 498.7553981807878 834.2851441376133 499.88278304662134Q837.898557169131 500.9812606082027 841.7721359389179 500.9812606082027L841.7721359389179 500.9812606082027Q853.7686672035566 500.9812606082027 860.7642348325749 496.35609192786006Q867.7887097658452 491.7309232475174 870.8817913208243 483.86813649093494Q873.9748728758036 476.0053497343525 873.9748728758036 466.35031011413724ZM936.1833916264118 404.9511958825889L936.6748157986983 422.2377638253694L936.6748157986983 514.9145812577349L917.8850680348064 514.9145812577349L917.8850680348064 404.9511958825889L936.1833916264118 404.9511958825889ZM971.0456005544945 404.34414249329393L971.0456005544945 404.34414249329393L970.9299713374858 421.83306156583944Q968.5884796930625 421.31273008930094 966.5071537869082 421.16819356804024Q964.425827880754 421.02365704677953 961.7952631938092 421.02365704677953L961.7952631938092 421.02365704677953Q955.2911197370775 421.02365704677953 950.2901561014569 423.0471683444294Q945.3180997700886 425.0706796420793 941.8781305640837 428.7419072821013Q938.4092540538268 432.3842276178711 936.443557364681 437.41409855774367Q934.4489533712833 442.4439694976163 933.8418999819885 448.4566887820617L933.8418999819885 448.4566887820617L928.5518633038466 451.49195572853654Q928.5518633038466 441.5478430657999 930.5464672972444 432.7889298774011Q932.5121639863899 424.0589239932544 936.6748157986983 417.29461479825324Q940.8374676110066 410.5303056032522 947.3127037634863 406.74344874622165Q953.7590326117138 402.92768458493896 962.6913896256256 402.92768458493896L962.6913896256256 402.92768458493896Q964.7438082275276 402.92768458493896 967.3743729144724 403.39020145297326Q970.0049376014174 403.82381101675537 971.0456005544945 404.34414249329393ZM1006.1968825250983 404.9511958825889L1007.2086381739234 428.4239269353277L1007.2086381739234 514.9145812577349L988.4188904100315 514.9145812577349L988.4188904100315 404.9511958825889L1006.1968825250983 404.9511958825889ZM1002.7280060148414 455.7702367578535L1002.7280060148414 455.7702367578535L994.9230338667633 455.45225641107993Q995.0097557795198 444.1784077527448 998.2762811600116 434.58118274103384Q1001.5138992362515 424.98395772932287 1007.4109893036884 417.8727608832961Q1013.3080793711251 410.73265673301717 1021.4888464744811 406.8301706589781Q1029.6696135778373 402.92768458493896 1039.642633544826 402.92768458493896L1039.642633544826 402.92768458493896Q1047.7655860396778 402.92768458493896 1054.2697294964096 405.0957324038496Q1060.7738729531413 407.29268752701233 1065.3990416334839 412.0623927286157Q1070.0242103138266 416.832097930219 1072.4524238710064 424.40581164428005Q1074.9095447324385 431.9795253583411 1074.9095447324385 442.8486717571463L1074.9095447324385 442.8486717571463L1074.9095447324385 514.9145812577349L1056.004167751538 514.9145812577349L1056.004167751538 442.6463206273813Q1056.004167751538 434.03194396024315 1053.4603249773497 428.79972189060555Q1050.9164822031612 423.5385925167158 1046.0311477845491 421.16819356804024Q1041.1458133659373 418.76888731511247 1034.0346165199105 418.76888731511247L1034.0346165199105 418.76888731511247Q1027.0390488908924 418.76888731511247 1021.2864953447163 421.71743234883087Q1015.5339417985401 424.66597738254933 1011.4291045947359 429.84038484368267Q1007.3242673909319 435.0436996090681 1005.0405903550127 441.69237958706066Q1002.7280060148414 448.3410595650532 1002.7280060148414 455.7702367578535ZM1098.3822757851774 461.1469953487518L1098.3822757851774 461.1469953487518L1098.3822757851774 458.8055037043284Q1098.3822757851774 446.9246016566982 1101.8222449911823 436.72032325569234Q1105.2911215014392 426.4871375504342 1111.795264958171 418.91342383637317Q1118.2994084149027 411.3686174265643 1127.549745775588 407.14815100575163Q1136.8000831362733 402.92768458493896 1148.2762829243734 402.92768458493896L1148.2762829243734 402.92768458493896Q1159.8681119294822 402.92768458493896 1169.1473565944195 407.14815100575163Q1178.455508563609 411.3686174265643 1185.0174666288453 418.91342383637317Q1191.5794246940814 426.4871375504342 1195.019393900086 436.72032325569234Q1198.4882704103431 446.9246016566982 1198.4882704103431 458.8055037043284L1198.4882704103431 458.8055037043284L1198.4882704103431 461.1469953487518Q1198.4882704103431 473.056804700634 1195.019393900086 483.2032684931357Q1191.5794246940814 493.3786395898895 1185.0174666288453 500.95235330395053Q1178.455508563609 508.5260670180116 1169.262985811428 512.7176261345721Q1160.0704630592472 516.9380925553847 1148.4786340541384 516.9380925553847L1148.4786340541384 516.9380925553847Q1136.8868050490298 516.9380925553847 1127.6364676883445 512.7176261345721Q1118.3861303276592 508.5260670180116 1111.8530795666752 500.95235330395053Q1105.2911215014392 493.3786395898895 1101.8222449911823 483.2032684931357Q1098.3822757851774 473.056804700634 1098.3822757851774 461.1469953487518ZM1117.1720235490693 458.8055037043284L1117.1720235490693 458.8055037043284L1117.1720235490693 461.1469953487518Q1117.1720235490693 469.3855770606121 1119.1088129339628 476.6413104278996Q1121.0456023188563 483.92595109943926 1124.9480883928954 489.5050608201025Q1128.8505744669344 495.0841705407658 1134.7476645343713 498.29288131275354Q1140.644754601808 501.5015920847412 1148.4786340541384 501.5015920847412L1148.4786340541384 501.5015920847412Q1156.1968842894603 501.5015920847412 1162.0361597483927 498.29288131275354Q1167.8754352073254 495.0841705407658 1171.7490139771123 489.5050608201025Q1175.6225927468993 483.92595109943926 1177.5882894360448 476.6413104278996Q1179.5828934294425 469.3855770606121 1179.5828934294425 461.1469953487518L1179.5828934294425 461.1469953487518L1179.5828934294425 458.8055037043284Q1179.5828934294425 450.68255120947657 1177.5882894360448 443.4268178421891Q1175.6225927468993 436.14217717064946 1171.691199368608 430.5052528414819Q1167.7887132945689 424.86832851231435 1161.9494378356364 421.6307104360745Q1156.1101623767038 418.3641850555825 1148.2762829243734 418.3641850555825L1148.2762829243734 418.3641850555825Q1140.5580326890517 418.3641850555825 1134.718757230119 421.6307104360745Q1128.8505744669344 424.86832851231435 1124.9480883928954 430.5052528414819Q1121.0456023188563 436.14217717064946 1119.1088129339628 443.4268178421891Q1117.1720235490693 450.68255120947657 1117.1720235490693 458.8055037043284ZM1292.1768434915334 498.9577493105528L1370.544545319089 498.9577493105528L1370.544545319089 514.9145812577349L1292.1768434915334 514.9145812577349L1292.1768434915334 498.9577493105528ZM1276.5379918911249 366.93809079102294L1296.1371441740769 366.93809079102294L1296.1371441740769 514.9145812577349L1276.5379918911249 514.9145812577349L1276.5379918911249 366.93809079102294ZM1292.1768434915334 430.5630674499862L1360.1668230925702 430.5630674499862L1360.1668230925702 446.5198993971682L1292.1768434915334 446.5198993971682L1292.1768434915334 430.5630674499862ZM1292.1768434915334 366.93809079102294L1369.503882366012 366.93809079102294L1369.503882366012 383.01055195521354L1292.1768434915334 383.01055195521354L1292.1768434915334 366.93809079102294ZM1383.032500756014 404.9511958825889L1404.6840716408678 404.9511958825889L1428.7638560829016 444.9878122718047L1453.1616208717091 404.9511958825889L1475.217894016093 404.9511958825889L1439.2283002221768 459.2102059638583L1476.3163715776745 514.9145812577349L1454.578078780064 514.9145812577349L1429.1685583424319 473.6638580899291L1403.7590379047992 514.9145812577349L1381.9051158901805 514.9145812577349L1418.9064653329215 459.2102059638583L1383.032500756014 404.9511958825889ZM1481.8087593855812 404.9511958825889L1541.271084232236 404.9511958825889L1541.271084232236 419.37594070440747L1481.8087593855812 419.37594070440747L1481.8087593855812 404.9511958825889ZM1501.9282431450715 487.56827143520906L1501.9282431450715 378.21193944935806L1520.746898213216 378.21193944935806L1520.746898213216 487.68390065221763Q1520.746898213216 493.2630103728809 1522.4524291640919 496.1248334938429Q1524.1868674192206 498.9577493105528 1526.9330613231741 499.88278304662134Q1529.6792552271274 500.7789094784377 1532.8301513906108 500.7789094784377L1532.8301513906108 500.7789094784377Q1535.1716430350343 500.7789094784377 1537.7443931134749 500.3452999146555Q1540.3460504961677 499.88278304662134 1541.6757864917658 499.56480269984775L1541.6757864917658 499.56480269984775L1541.7625084045226 514.9145812577349Q1539.5366459771076 515.6372638640385 1535.92323294559 516.2732245575855Q1532.3098199140722 516.9380925553847 1527.2510416699474 516.9380925553847L1527.2510416699474 516.9380925553847Q1520.3421959536859 516.9380925553847 1514.5318277990054 514.1918986514313Q1508.7503669485768 511.44570474747786 1505.3393050468244 504.9993758992503Q1501.9282431450715 498.5530470510228 1501.9282431450715 487.56827143520906L1501.9282431450715 487.56827143520906ZM1581.5967736639732 404.9511958825889L1582.117105140512 422.2377638253694L1582.117105140512 514.9145812577349L1563.32735737662 514.9145812577349L1563.32735737662 404.9511958825889L1581.5967736639732 404.9511958825889ZM1616.458982592056 404.34414249329393L1616.458982592056 404.34414249329393L1616.3722606792994 421.83306156583944Q1614.0307690348761 421.31273008930094 1611.949443128722 421.16819356804024Q1609.868117222568 421.02365704677953 1607.2086452313706 421.02365704677953L1607.2086452313706 421.02365704677953Q1600.7045017746389 421.02365704677953 1595.7324454432705 423.0471683444294Q1590.760389111902 425.0706796420793 1587.291512601645 428.7419072821013Q1583.8515433956404 432.3842276178711 1581.8569394022427 437.41409855774367Q1579.8912427130972 442.4439694976163 1579.2841893238024 448.4566887820617L1579.2841893238024 448.4566887820617L1573.99415264566 451.49195572853654Q1573.99415264566 441.5478430657999 1575.9598493348058 432.7889298774011Q1577.9544533282037 424.0589239932544 1582.117105140512 417.29461479825324Q1586.2797569528202 410.5303056032522 1592.726085801048 406.74344874622165Q1599.2013219535274 402.92768458493896 1608.1336789674392 402.92768458493896L1608.1336789674392 402.92768458493896Q1610.157190265089 402.92768458493896 1612.8166622562862 403.39020145297326Q1615.447226943231 403.82381101675537 1616.458982592056 404.34414249329393ZM1698.671355885146 496.1248334938429L1698.671355885146 496.1248334938429L1698.671355885146 439.4954244638979Q1698.671355885146 432.99128100716604 1696.0986058067056 428.1637611970584Q1693.4969484240128 423.3362413869508 1688.3225409628794 420.70567670000594Q1683.148133501746 418.0751120130611 1675.516605179181 418.0751120130611L1675.516605179181 418.0751120130611Q1668.4054083331541 418.0751120130611 1663.057557046508 420.503325570241Q1657.738613064114 422.9315391274208 1654.732253421891 426.8918398099642Q1651.7258937796685 430.88104779675973 1651.7258937796685 435.44840186859807L1651.7258937796685 435.44840186859807L1632.9361460157766 435.44840186859807Q1632.9361460157766 429.5513118011612 1635.9714129622512 423.7409436464808Q1639.0355872129783 417.9594827960525 1644.7592334549024 413.24759220295346Q1650.5117870010786 408.5067943056023 1658.605832191678 405.7027857931445Q1666.6709700780257 402.92768458493896 1676.643990045014 402.92768458493896L1676.643990045014 402.92768458493896Q1688.611614005401 402.92768458493896 1697.8330440618342 406.9747071802388Q1707.0255668140153 411.0506370797907 1712.2577888836527 419.23140418314676Q1717.49001095329 427.41217128650277 1717.49001095329 439.69777559366287L1717.49001095329 439.69777559366287L1717.49001095329 490.92151872845744Q1717.49001095329 496.4139065363643 1718.4439519936109 502.6289769505748Q1719.4268003381835 508.815140060533 1721.3346824188252 513.295772219615L1721.3346824188252 513.295772219615L1721.3346824188252 514.9145812577349L1701.735530135873 514.9145812577349Q1700.319072227518 511.6480558772428 1699.5096677084584 506.21348267784026Q1698.671355885146 500.7789094784377 1698.671355885146 496.1248334938429ZM1680.0839592510192 448.2543376522967L1701.9378812656382 448.2543376522967L1702.140232395403 461.46497569552537L1683.148133501746 461.46497569552537Q1675.1119029196511 461.46497569552537 1668.810110592684 462.7368970826196Q1662.5083182657172 464.0088184697138 1658.2300372364004 466.5526612439022Q1653.9806635113355 469.06759671383855 1651.7258937796685 472.88336087512124Q1649.5000313522537 476.69912503640387 1649.5000313522537 481.78681058478077L1649.5000313522537 481.78681058478077Q1649.5000313522537 486.9612180459141 1651.841522996677 491.23949907523104Q1654.1830146411005 495.51778010454797 1658.8949052341995 498.0038082702321Q1663.6357031315506 500.4898364359163 1670.5445488478126 500.4898364359163L1670.5445488478126 500.4898364359163Q1679.1589255149506 500.4898364359163 1685.7786981886911 496.8186087958943Q1692.3984708624316 493.1762884601245 1696.3009569364704 487.8862517819826Q1700.2034430105095 482.59621510384073 1700.5214233572833 477.6241587724724L1700.5214233572833 477.6241587724724L1708.5576539393783 486.6721450033927Q1707.834971333075 490.92151872845744 1704.6840751695918 496.1248334938429Q1701.5331790061082 501.29924095497626 1696.3009569364704 506.0111315480753Q1691.068734866833 510.75192944542647 1683.899723412302 513.8450110004055Q1676.7307119577708 516.9380925553847 1667.798354943859 516.9380925553847L1667.798354943859 516.9380925553847Q1656.6112281982805 516.9380925553847 1648.2281099651593 512.5730896133114Q1639.8449917320384 508.20808667123805 1635.2198230516956 500.83672408694196Q1630.594654371353 493.4653615026459 1630.594654371353 484.3306533589692L1630.594654371353 484.3306533589692Q1630.594654371353 475.4850182578139 1634.0635308816102 468.72070906281283Q1637.5035000876148 461.95639986781174 1644.0076435443468 457.4468604044777Q1650.5117870010786 452.9084136368915 1659.6464951447551 450.5958292967202Q1668.810110592684 448.2543376522967 1680.0839592510192 448.2543376522967L1680.0839592510192 448.2543376522967ZM1749.6927478901757 366.93809079102294L1769.4075293901365 366.93809079102294L1768.10670069879 473.1435266133905L1751.1381131027829 473.1435266133905L1749.6927478901757 366.93809079102294ZM1749.085694500881 505.4618927672846L1749.085694500881 505.4618927672846Q1749.085694500881 500.8945386954462 1751.8897030133385 497.74364253196285Q1754.693711525796 494.5927463684794 1760.157192029451 494.5927463684794L1760.157192029451 494.5927463684794Q1765.5628579246013 494.5927463684794 1768.4535883498156 497.74364253196285Q1771.34431877503 500.8945386954462 1771.34431877503 505.4618927672846L1771.34431877503 505.4618927672846Q1771.34431877503 509.826895709358 1768.4535883498156 512.9777918728414Q1765.5628579246013 516.1286880363248 1760.157192029451 516.1286880363248L1760.157192029451 516.1286880363248Q1754.693711525796 516.1286880363248 1751.8897030133385 512.9777918728414Q1749.085694500881 509.826895709358 1749.085694500881 505.4618927672846Z " fill="#dee2e6" transform="matrix(0.4939750957438547,0,0,0.4939750957438547,0,81.69359076999609)"/></g></svg>